<?xml version="1.0" encoding="utf-8"?>
<!-- Generator: Adobe Illustrator 16.0.0, SVG Export Plug-In . SVG Version: 6.00 Build 0)  -->
<!DOCTYPE svg PUBLIC "-//W3C//DTD SVG 1.1//EN" "http://www.w3.org/Graphics/SVG/1.1/DTD/svg11.dtd">
<svg version="1.1" id="Layer_1" xmlns="http://www.w3.org/2000/svg" xmlns:xlink="http://www.w3.org/1999/xlink" x="0px" y="0px"
	 width="400px" height="400px" viewBox="0 0 400 400" enable-background="new 0 0 400 400" xml:space="preserve">
<g>
	<radialGradient id="SVGID_1_" cx="270.4492" cy="267.2344" r="138.5472" gradientUnits="userSpaceOnUse">
		<stop  offset="0" style="stop-color:#FFF698"/>
		<stop  offset="1" style="stop-color:#FFDD15"/>
	</radialGradient>
	<path fill="url(#SVGID_1_)" d="M275.703,215.669c0-62.549-55.386-91.672-86.898-91.672c24.351,0,68.754,29.125,68.754,75.438
		c0,46.315-37.719,76.395-76.393,76.395c-38.674,0-59.683-29.125-59.683-29.125s27.693,42.971,84.75,42.971
		c15.282,0,28.56-2.792,40.005-7.609C261.56,266.482,275.703,244.337,275.703,215.669z"/>
	<g>
		<radialGradient id="SVGID_2_" cx="229.3896" cy="91.5283" r="166.9559" gradientUnits="userSpaceOnUse">
			<stop  offset="0" style="stop-color:#FFF100"/>
			<stop  offset="1" style="stop-color:#FAAF40"/>
		</radialGradient>
		<path fill="url(#SVGID_2_)" d="M246.578,91.53c-31.512-24.351-32.944-64.936-32.944-64.936
			c-27.694,8.595-45.359,27.216-45.359,54.909c0,27.69,20.53,42.493,20.53,42.493c31.513,0,86.898,29.123,86.898,91.672
			c0,28.668-14.144,50.811-29.465,66.394c42.371-17.838,59.545-63.526,59.545-98.86C305.783,138.32,278.091,115.881,246.578,91.53z"
			/>
	</g>
	<radialGradient id="SVGID_3_" cx="193.1011" cy="206.5986" r="64.0445" gradientUnits="userSpaceOnUse">
		<stop  offset="0" style="stop-color:#ED1C24"/>
		<stop  offset="1" style="stop-color:#9E005D"/>
	</radialGradient>
	<path fill="url(#SVGID_3_)" d="M211.444,157.369c0.872,3.377,1.338,6.913,1.338,10.562c0,23.233-18.834,42.07-42.069,42.07
		c-18.689,0-34.522-12.192-40.005-29.054c-0.716,3.296-1.104,6.712-1.104,10.22c0,26.455,21.445,47.899,47.899,47.899
		c26.455,0,47.899-21.444,47.899-47.899C225.403,177.977,220.071,166.033,211.444,157.369z"/>
	<radialGradient id="SVGID_4_" cx="206" cy="210.5146" r="136.488" gradientUnits="userSpaceOnUse">
		<stop  offset="0" style="stop-color:#ED1C24"/>
		<stop  offset="0.3831" style="stop-color:#E01840"/>
		<stop  offset="0.7488" style="stop-color:#D71553"/>
		<stop  offset="1" style="stop-color:#D4145A"/>
	</radialGradient>
	<path fill="url(#SVGID_4_)" d="M199.338,137.111c5.79,5.383,10.065,12.369,12.106,20.258c8.627,8.664,13.959,20.607,13.959,33.798
		c0,26.455-21.444,47.899-47.899,47.899c-26.454,0-47.899-21.444-47.899-47.899c0-3.508,0.388-6.924,1.104-10.22
		c-0.18-0.551-0.345-1.107-0.501-1.667c-1.012,4.252-1.562,8.681-1.562,13.241c0,31.516,25.547,57.063,57.061,57.063
		c31.515,0,57.062-25.548,57.062-57.063C242.768,165.709,224.268,143.225,199.338,137.111z"/>
	<radialGradient id="SVGID_5_" cx="160.6343" cy="246.7061" r="113.8425" gradientUnits="userSpaceOnUse">
		<stop  offset="0" style="stop-color:#ED1C24"/>
		<stop  offset="0.1968" style="stop-color:#E41938"/>
		<stop  offset="0.4541" style="stop-color:#DB164B"/>
		<stop  offset="0.7189" style="stop-color:#D61556"/>
		<stop  offset="1" style="stop-color:#D4145A"/>
	</radialGradient>
	<path fill="url(#SVGID_5_)" d="M194.629,133.326c1.66,1.15,3.234,2.415,4.709,3.785c24.93,6.113,43.43,28.598,43.43,55.41
		c0,31.516-25.547,57.063-57.062,57.063c-31.514,0-57.061-25.548-57.061-57.063c0-4.561,0.55-8.989,1.562-13.241
		c-1.01-3.611-1.562-7.417-1.562-11.35c0-5.674,1.129-11.082,3.166-16.02c-11.703,12.038-18.922,28.463-18.922,46.58
		c0,36.921,29.93,66.85,66.849,66.85c36.92,0,66.849-29.929,66.849-66.85C246.587,166.691,224.378,140.097,194.629,133.326z"/>
	<radialGradient id="SVGID_6_" cx="129.1216" cy="129.25" r="106.7923" gradientUnits="userSpaceOnUse">
		<stop  offset="0" style="stop-color:#ED1C24"/>
		<stop  offset="1" style="stop-color:#9E005D"/>
	</radialGradient>
	<path fill="url(#SVGID_6_)" d="M110.024,229.996c0,0-18.142-47.938,22.441-84.989c13.368-13.367,6.207-19.1,6.207-19.1
		s-9.072-7.162-17.189,5.254C113.367,143.574,89.971,176.519,110.024,229.996z"/>
	<g>
		<radialGradient id="SVGID_7_" cx="271" cy="293.5156" r="123.0322" gradientUnits="userSpaceOnUse">
			<stop  offset="0" style="stop-color:#ED1C24"/>
			<stop  offset="1" style="stop-color:#9E005D"/>
		</radialGradient>
		<path fill="url(#SVGID_7_)" d="M34.4,373.405v-34.729H65.6c5.473,0,8.21,2.245,8.21,6.732v4.188c0,3.229-1.97,5.2-5.911,5.911
			c4.105,0.657,6.158,2.874,6.158,6.65v4.434c0,4.544-3.586,6.814-10.755,6.814H34.4z M61.741,344.259H42.775v8.292h18.966
			c2.517,0,3.776-0.828,3.776-2.487v-3.317C65.517,345.089,64.257,344.259,61.741,344.259z M61.741,358.298H42.775v8.867h18.966
			c1.422,0,2.408-0.164,2.956-0.492c0.766-0.438,1.149-1.313,1.149-2.627v-2.628c0-1.313-0.384-2.188-1.149-2.627
			C64.148,358.463,63.163,358.298,61.741,358.298z"/>
		<radialGradient id="SVGID_8_" cx="271" cy="293.5156" r="123.032" gradientUnits="userSpaceOnUse">
			<stop  offset="0" style="stop-color:#ED1C24"/>
			<stop  offset="1" style="stop-color:#9E005D"/>
		</radialGradient>
		<path fill="url(#SVGID_8_)" d="M87.521,346.886c0-3.284,0.63-5.473,1.891-6.568c1.261-1.094,3.647-1.642,7.157-1.642h26.896
			c3.51,0,5.895,0.548,7.156,1.642c1.261,1.096,1.892,3.284,1.892,6.568v18.31c0,3.229-0.646,5.405-1.934,6.526
			c-1.288,1.123-3.66,1.684-7.114,1.684H96.569c-3.51,0-5.896-0.561-7.157-1.684c-1.261-1.121-1.891-3.297-1.891-6.526V346.886z
			 M96.06,366.755h27.915V345.08H96.06V366.755z"/>
		<radialGradient id="SVGID_9_" cx="271" cy="293.5156" r="123.0316" gradientUnits="userSpaceOnUse">
			<stop  offset="0" style="stop-color:#ED1C24"/>
			<stop  offset="1" style="stop-color:#9E005D"/>
		</radialGradient>
		<path fill="url(#SVGID_9_)" d="M147.045,373.405v-34.729h5.829l29.475,23.071v-23.071h7.636v34.729h-5.83l-29.393-23.399v23.399
			H147.045z"/>
		<radialGradient id="SVGID_10_" cx="271" cy="293.5156" r="123.0311" gradientUnits="userSpaceOnUse">
			<stop  offset="0" style="stop-color:#ED1C24"/>
			<stop  offset="1" style="stop-color:#9E005D"/>
		</radialGradient>
		<path fill="url(#SVGID_10_)" d="M205.502,373.405v-34.729h36.863v6.24H214.04v9.031h15.271v6.485H214.04v12.973H205.502z"/>
		<radialGradient id="SVGID_11_" cx="271" cy="293.5156" r="123.0309" gradientUnits="userSpaceOnUse">
			<stop  offset="0" style="stop-color:#ED1C24"/>
			<stop  offset="1" style="stop-color:#9E005D"/>
		</radialGradient>
		<path fill="url(#SVGID_11_)" d="M250.657,373.405v-34.729h8.456v34.729H250.657z"/>
		<radialGradient id="SVGID_12_" cx="271" cy="293.5156" r="123.0312" gradientUnits="userSpaceOnUse">
			<stop  offset="0" style="stop-color:#ED1C24"/>
			<stop  offset="1" style="stop-color:#9E005D"/>
		</radialGradient>
		<path fill="url(#SVGID_12_)" d="M274.548,373.405v-34.729h31.281c5.419,0,8.128,2.245,8.128,6.732v8.21
			c0,4.434-2.709,6.65-8.128,6.65h-4.763l16.504,13.137h-12.152l-14.531-13.137h-7.965v13.137H274.548z M302.217,344.669h-19.295
			v9.606h19.295c2.572,0,3.858-0.931,3.858-2.792v-4.022C306.075,345.601,304.789,344.669,302.217,344.669z"/>
		<radialGradient id="SVGID_13_" cx="271" cy="293.5156" r="123.0319" gradientUnits="userSpaceOnUse">
			<stop  offset="0" style="stop-color:#ED1C24"/>
			<stop  offset="1" style="stop-color:#9E005D"/>
		</radialGradient>
		<path fill="url(#SVGID_13_)" d="M327.914,373.405v-34.729h37.275v6.157h-28.736v7.554h16.749v5.994h-16.749v8.538H365.6v6.486
			H327.914z"/>
	</g>
</g>
</svg>
