<?xml version="1.0" encoding="utf-8"?>
<!-- Generator: Adobe Illustrator 16.0.0, SVG Export Plug-In . SVG Version: 6.00 Build 0)  -->
<!DOCTYPE svg PUBLIC "-//W3C//DTD SVG 1.1//EN" "http://www.w3.org/Graphics/SVG/1.1/DTD/svg11.dtd">
<svg version="1.1" id="Layer_1" xmlns="http://www.w3.org/2000/svg" xmlns:xlink="http://www.w3.org/1999/xlink" x="0px" y="0px"
	 width="400px" height="400px" viewBox="0 0 400 400" enable-background="new 0 0 400 400" xml:space="preserve">
<g>
	<radialGradient id="SVGID_1_" cx="288.7334" cy="333.3896" r="176.6387" gradientUnits="userSpaceOnUse">
		<stop  offset="0" style="stop-color:#FFF698"/>
		<stop  offset="1" style="stop-color:#FFDD15"/>
	</radialGradient>
	<path fill="url(#SVGID_1_)" d="M295.431,267.648c0-79.744-70.612-116.874-110.788-116.874c31.045,0,87.655,37.132,87.655,96.177
		c0,59.049-48.088,97.396-97.394,97.396c-49.307,0-76.091-37.132-76.091-37.132S134.119,362,206.861,362
		c19.483,0,36.411-3.56,51.003-9.701C277.398,332.432,295.431,304.198,295.431,267.648z"/>
	<g>
		<radialGradient id="SVGID_2_" cx="236.3838" cy="109.3799" r="212.8551" gradientUnits="userSpaceOnUse">
			<stop  offset="0" style="stop-color:#FFF100"/>
			<stop  offset="1" style="stop-color:#FAAF40"/>
		</radialGradient>
		<path fill="url(#SVGID_2_)" d="M258.299,109.382c-40.175-31.045-42.001-82.788-42.001-82.788
			c-35.308,10.958-57.83,34.698-57.83,70.005c0,35.303,26.174,54.175,26.174,54.175c40.176,0,110.788,37.13,110.788,116.874
			c0,36.55-18.032,64.779-37.565,84.646c54.02-22.742,75.915-80.991,75.915-126.039C333.78,169.036,298.475,140.427,258.299,109.382
			z"/>
	</g>
	<radialGradient id="SVGID_3_" cx="190.1201" cy="256.0859" r="81.6502" gradientUnits="userSpaceOnUse">
		<stop  offset="0" style="stop-color:#ED1C24"/>
		<stop  offset="1" style="stop-color:#9E005D"/>
	</radialGradient>
	<path fill="url(#SVGID_3_)" d="M213.506,193.321c1.112,4.305,1.706,8.813,1.706,13.465c0,29.621-24.012,53.637-53.635,53.637
		c-23.827,0-44.012-15.545-51.002-37.041c-0.913,4.201-1.407,8.557-1.407,13.029c0,33.728,27.341,61.067,61.068,61.067
		c33.728,0,61.068-27.34,61.068-61.067C231.303,219.594,224.505,204.367,213.506,193.321z"/>
	<radialGradient id="SVGID_4_" cx="206.5654" cy="261.0771" r="174.0101" gradientUnits="userSpaceOnUse">
		<stop  offset="0" style="stop-color:#ED1C24"/>
		<stop  offset="0.3831" style="stop-color:#E01840"/>
		<stop  offset="0.7488" style="stop-color:#D71553"/>
		<stop  offset="1" style="stop-color:#D4145A"/>
	</radialGradient>
	<path fill="url(#SVGID_4_)" d="M198.071,167.494c7.382,6.863,12.833,15.77,15.435,25.827c10.999,11.046,17.797,26.272,17.797,43.09
		c0,33.728-27.34,61.067-61.068,61.067c-33.727,0-61.068-27.34-61.068-61.067c0-4.473,0.494-8.828,1.407-13.029
		c-0.229-0.702-0.44-1.412-0.639-2.126c-1.29,5.421-1.991,11.067-1.991,16.882c0,40.18,32.57,72.751,72.748,72.751
		c40.178,0,72.749-32.571,72.749-72.751C253.44,203.954,229.854,175.288,198.071,167.494z"/>
	<radialGradient id="SVGID_5_" cx="148.7275" cy="307.2188" r="145.1392" gradientUnits="userSpaceOnUse">
		<stop  offset="0" style="stop-color:#ED1C24"/>
		<stop  offset="0.1968" style="stop-color:#E41938"/>
		<stop  offset="0.4541" style="stop-color:#DB164B"/>
		<stop  offset="0.7189" style="stop-color:#D61556"/>
		<stop  offset="1" style="stop-color:#D4145A"/>
	</radialGradient>
	<path fill="url(#SVGID_5_)" d="M192.068,162.668c2.117,1.467,4.123,3.079,6.003,4.826c31.783,7.794,55.369,36.46,55.369,70.644
		c0,40.18-32.57,72.751-72.749,72.751c-40.178,0-72.748-32.571-72.748-72.751c0-5.814,0.702-11.461,1.991-16.882
		c-1.288-4.604-1.991-9.456-1.991-14.47c0-7.233,1.44-14.128,4.036-20.423c-14.92,15.347-24.124,36.288-24.124,59.385
		c0,47.071,38.158,85.229,85.227,85.229c47.07,0,85.227-38.157,85.227-85.229C258.31,205.206,229.995,171.3,192.068,162.668z"/>
	<radialGradient id="SVGID_6_" cx="108.5513" cy="157.4717" r="136.1517" gradientUnits="userSpaceOnUse">
		<stop  offset="0" style="stop-color:#ED1C24"/>
		<stop  offset="1" style="stop-color:#9E005D"/>
	</radialGradient>
	<path fill="url(#SVGID_6_)" d="M84.204,285.915c0,0-23.13-61.117,28.611-108.354c17.043-17.042,7.913-24.351,7.913-24.351
		s-11.566-9.131-21.914,6.698C88.465,175.734,58.637,217.735,84.204,285.915z"/>
</g>
</svg>
